<?xml version="1.0" encoding="utf-8"?>
<!-- Generator: Adobe Illustrator 18.0.0, SVG Export Plug-In . SVG Version: 6.00 Build 0)  -->
<!DOCTYPE svg PUBLIC "-//W3C//DTD SVG 1.1//EN" "http://www.w3.org/Graphics/SVG/1.1/DTD/svg11.dtd">
<svg version="1.1" id="Layer_1" xmlns="http://www.w3.org/2000/svg" xmlns:xlink="http://www.w3.org/1999/xlink" x="0px" y="0px"
	 viewBox="0 0 400 400" enable-background="new 0 0 400 400" xml:space="preserve">
<g>
	<path fill="#D9DDE0" d="M315,302.2V112.7h0l-96.5-16.1c-6-1-12.3-1.5-18.5-1.5c-6.3,0-12.5,0.5-18.5,1.5L85,112.7h0v189.5
		c0,0,82.1,2.7,115.7,2.7S315,302.2,315,302.2z"/>
	<g>
		<g>
			<g>
				<path fill="#FFFFFF" d="M151.1,271.8c-4.3,0-5.6,0-13.3-0.7c-7.5-0.7-13.1-5-16.5-12.9c-2.6-5.8-2.5-13.4-2.4-19.4
					c0-1,0-2,0-2.9c0-5.4,1.4-9.3,1.9-10.5c-0.1-1.4-0.4-6.6-0.6-12.8c-0.7-0.6-1.4-1.7-1.6-3.8c-0.1-2.1,0.7-3.5,1.3-4.2
					c0-0.3,0-0.6,0-0.9c-0.1-6.1,0-16.4,0.3-30.7c-2.4,0.7-5,0.9-5,0.9c0,0-0.1,0-0.1,0c-0.8,0-1.4-0.6-1.5-1.3
					c-0.1-1.3,0.5-2.7,1.8-4.2c0.6-0.7,2.1-2,3.3-2.8c-1.1-9.9-0.9-16.9-0.7-20.2l0-0.4c0.3-4.3,0.7-10.7,7.2-16.6
					c8-7.2,21.8-7.7,26-7.8c0,0,0.1,0,0.1,0c4.2,0,18,0.6,26,7.8c6.5,5.8,6.9,12.3,7.2,16.5l0,0.4c0.2,3.3,0.4,10.3-0.7,20.2
					c1.2,0.8,2.7,2.1,3.3,2.8c1.3,1.5,1.9,2.9,1.8,4.2c-0.1,0.7-0.6,1.2-1.3,1.3c-0.1,0-0.1,0-0.2,0c0,0-2.6-0.2-5.1-0.9
					c0.3,13.8,0.4,24.6,0.3,30.6l0,0.9c0.6,0.7,1.4,2.1,1.3,4.2c-0.1,2.1-0.9,3.2-1.6,3.8c-0.2,6.2-0.6,11.4-0.6,12.8
					c0.5,1.2,1.9,5.1,1.9,10.5c0,0.9,0,1.9,0,2.9c0.1,6.1,0.2,13.6-2.4,19.4c-3.5,7.9-9,12.2-16.5,12.9c-7.7,0.7-9.1,0.7-13.4,0.7
					c0,0-0.1,0-0.1,0S151.1,271.8,151.1,271.8z"/>
				<path fill="#415463" d="M151.3,122.1C151.3,122.1,151.3,122.1,151.3,122.1c5.6,0,18,1,25,7.4c6.2,5.6,6.4,11.8,6.7,16
					c0.3,4.1,0.4,11.2-0.8,20.9c0,0,0,0,0,0c0.3,0,5.5,3.4,5.2,6c0,0,0,0,0,0c-0.2,0-4.2-0.4-6.6-1.6c0,0.1,0.6,22.1,0.4,32.8
					c0,0.5,0,1,0,1.6c0.3,0.3,1.4,1.3,1.3,3.5c-0.2,2.4-1.3,3-1.5,3.1c-0.3,7.6-0.7,13.9-0.7,13.9s1.9,4.1,1.9,10.2
					c0,6.2,0.6,15.2-2.2,21.7c-2.9,6.5-7.6,11.3-15.3,12c-7.7,0.7-8.9,0.7-13.4,0.7c0,0,0,0,0,0c0,0,0,0,0,0c0,0,0,0,0,0
					c-0.1,0-0.1,0-0.2,0c-4.3,0-5.6,0-13.2-0.7c-7.7-0.7-12.4-5.5-15.3-12c-2.9-6.5-2.2-15.6-2.2-21.7c0-6.2,1.9-10.2,1.9-10.2
					s-0.4-6.3-0.7-13.9c-0.1,0-1.4-0.6-1.5-3.1c-0.1-2.2,1-3.3,1.3-3.5c0-0.5,0-1,0-1.5c-0.2-10.7,0.4-32.7,0.4-32.8
					c-2.5,1.3-6.6,1.6-6.6,1.6c-0.3-2.6,4.9-6,5.2-6c0,0,0,0,0,0c-1.1-9.7-1.1-16.7-0.8-20.9c0.3-4.1,0.5-10.4,6.7-15.9
					C133.4,123.1,145.7,122.1,151.3,122.1C151.3,122.1,151.3,122.1,151.3,122.1C151.3,122.1,151.3,122.1,151.3,122.1
					C151.3,122.1,151.3,122.1,151.3,122.1 M151.3,119.1C151.3,119.1,151.3,119.1,151.3,119.1c-4.4,0-18.7,0.6-27.1,8.1
					c-6.9,6.2-7.4,13.3-7.7,17.6l0,0.4c-0.3,4-0.4,10.5,0.6,19.6c-1.5,1.1-2.8,2.5-2.8,2.5c-1.6,1.8-2.4,3.6-2.2,5.3
					c0.2,1.5,1.5,2.7,3,2.7c0.1,0,0.1,0,0.2,0c0,0,1.5-0.1,3.4-0.5c-0.3,13.3-0.4,23-0.3,28.8c0,0.1,0,0.2,0,0.4
					c-0.7,1-1.4,2.6-1.3,4.8c0.1,2.1,0.8,3.5,1.6,4.3c0.2,5.6,0.5,10.2,0.6,11.9c-0.6,1.6-1.9,5.5-1.9,10.7c0,0.9,0,1.9,0,2.9
					c-0.1,6.2-0.2,13.9,2.5,20.1c3.7,8.4,9.7,13.1,17.8,13.8c7.8,0.7,9.2,0.7,13.5,0.7h0c0.1,0,0.1,0,0.2,0c0.1,0,0.1,0,0.2,0
					c4.3,0,5.7,0,13.5-0.7c8.1-0.7,14.1-5.4,17.8-13.8c2.7-6.1,2.6-13.9,2.5-20.1c0-1,0-2,0-2.9c0-5.2-1.3-9.1-1.9-10.7
					c0.1-1.7,0.4-6.4,0.6-12c0.8-1,1.5-2.4,1.6-4.3c0.1-2.2-0.6-3.8-1.3-4.8c0-0.1,0-0.3,0-0.4c0.1-5.7,0-15.8-0.3-28.7
					c1.8,0.4,3.3,0.5,3.6,0.5c0.2,0,0.3,0,0.5,0c1.3-0.2,2.4-1.3,2.5-2.6c0.2-1.7-0.5-3.5-2.2-5.3c0,0-1.3-1.4-2.9-2.5
					c1-9.6,0.8-16.3,0.6-19.6l0-0.4c-0.3-4.2-0.8-11.3-7.7-17.6C170,119.8,155.8,119.1,151.3,119.1
					C151.4,119.1,151.4,119.1,151.3,119.1L151.3,119.1z"/>
			</g>
			<path fill="#415463" d="M149.6,126.6c0-0.4,0.8-0.7,1.7-0.7c0.9,0,1.7,0.3,1.7,0.7c0,0.4-0.8,0.7-1.7,0.7
				C150.4,127.3,149.6,127,149.6,126.6z"/>
			<path fill="#415463" d="M123.7,136.1c-0.5-0.7,0.6-2.5,2.6-4c2-1.4,4-2,4.6-1.2c0.5,0.8-0.6,2.5-2.6,4
				C126.3,136.3,124.2,136.9,123.7,136.1z"/>
			<path fill="#415463" d="M174.3,134.9c-2-1.4-3.2-3.2-2.6-4c0.5-0.7,2.6-0.2,4.6,1.2c2,1.4,3.2,3.2,2.6,3.9
				C178.3,136.9,176.3,136.3,174.3,134.9z"/>
			<path fill="#415463" d="M179,225.4l-2,16.4c0,0-1.2-8.5-1.7-14.9c-0.6-6.4-0.1-31.8,0.6-37.7c0.7-5.5,3.2-25.5,3.2-25.5
				C179.6,178.4,179,225.4,179,225.4z"/>
			<path fill="#415463" d="M124.8,158.8l0.1-0.1c2.5-4.9,7.1-8.4,13.7-10.5c5.7-1.8,11.2-2,12.8-2c1.6,0,7,0.2,12.8,2
				c6.6,2.1,11.2,5.7,13.7,10.5l0.1,0.1l-0.1,0c-0.2,1-2.1,15-3.1,22.4l0,0.1l-0.1,0c0,0-2.3-0.9-6.2-1.7c-3.7-0.8-9.6-1.7-17-1.7
				c-7.4,0-13.3,0.9-17,1.7c-4,0.8-6.2,1.7-6.2,1.7l-0.1,0l0-0.1C127,173.8,125.1,159.9,124.8,158.8L124.8,158.8z"/>
			<path fill="#415463" d="M123.6,225.4c0,0-0.6-47,0-61.7c0,0,2.5,20,3.2,25.5c0.7,5.9,1.1,31.3,0.6,37.7
				c-0.6,6.4-1.7,14.9-1.7,14.9L123.6,225.4z"/>
			<path fill="#415463" d="M131.2,253.3L131.2,253.3L131.2,253.3c0,0-0.3-5.6-0.5-11.1c-0.1-2.8-0.2-5.5-0.3-7.6
				c-0.1-1.9-0.1-2.7-0.1-3.2c0-0.1,0-0.2,0-0.3l0,0l0,0c0-0.1,0-0.1,0.1-0.1l0.1,0l0,0.1c5,2.6,20.6,2.7,20.7,2.7
				c0.2,0,15.8,0,20.7-2.7l0,0l0.1,0c0,0,0.1,0,0.1,0.1h0l0,0c0,0.3,0,1.1-0.1,3.4c-0.1,2.1-0.2,4.9-0.3,7.6
				c-0.2,5.5-0.4,11.1-0.4,11.1l0,0c-0.1,0.2-2.3,5.9-18.9,5.9l0,0h-0.2C147.2,259.3,135.1,258.7,131.2,253.3z"/>
			<rect x="146.8" y="260.4" fill="#415463" width="8.9" height="0.9"/>
			<path fill="#415463" d="M129.4,264.3c-1.8-1-3-2.4-2.6-3.1c0.4-0.7,2.2-0.4,4,0.6c1.8,1,3,2.4,2.6,3.1
				C133.1,265.5,131.3,265.3,129.4,264.3z"/>
			<path fill="#415463" d="M169.2,264.8c-0.4-0.7,0.8-2.1,2.6-3.1c1.8-1,3.6-1.3,4-0.6c0.4,0.7-0.8,2.1-2.6,3.1
				C171.3,265.3,169.5,265.5,169.2,264.8z"/>
		</g>
		<g>
			<g>
				<path fill="#FFFFFF" d="M248.5,271.8c-4.3,0-5.6,0-13.3-0.7c-7.5-0.7-13.1-5-16.5-12.9c-2.6-5.8-2.5-13.4-2.4-19.4
					c0-1,0-2,0-2.9c0-5.4,1.4-9.3,1.9-10.5c-0.1-1.4-0.4-6.6-0.6-12.8c-0.7-0.6-1.4-1.7-1.6-3.8c-0.1-2.1,0.7-3.5,1.3-4.2
					c0-0.3,0-0.6,0-0.9c-0.1-6,0-16.4,0.3-30.7c-2.4,0.7-5,0.9-5,0.9c0,0-0.1,0-0.1,0c-0.8,0-1.4-0.6-1.5-1.3
					c-0.1-1.3,0.5-2.7,1.8-4.2c0.6-0.7,2.1-2,3.3-2.8c-1.1-9.9-0.9-16.9-0.7-20.2l0-0.4c0.3-4.3,0.7-10.7,7.2-16.6
					c8-7.2,21.8-7.7,26-7.8c0,0,0.1,0,0.1,0c4.2,0,18,0.6,26,7.8c6.5,5.8,6.9,12.3,7.2,16.5l0,0.4c0.2,3.3,0.4,10.3-0.7,20.2
					c1.2,0.8,2.7,2.1,3.3,2.8c1.3,1.5,1.9,2.9,1.8,4.2c-0.1,0.7-0.6,1.2-1.3,1.3c-0.1,0-0.1,0-0.2,0c0,0-2.6-0.2-5.1-0.9
					c0.3,13.8,0.4,24.7,0.3,30.6l0,0.9c0.6,0.7,1.4,2.1,1.3,4.2c-0.1,2.1-0.9,3.2-1.6,3.8c-0.2,6.2-0.6,11.4-0.6,12.8
					c0.5,1.2,1.9,5.1,1.9,10.5c0,0.9,0,1.9,0,2.9c0.1,6.1,0.2,13.6-2.4,19.4c-3.5,7.9-9,12.2-16.5,12.9c-7.7,0.7-9.1,0.7-13.4,0.7
					c0,0-0.1,0-0.1,0S248.5,271.8,248.5,271.8z"/>
				<path fill="#415463" d="M248.7,122.1C248.7,122.1,248.7,122.1,248.7,122.1c5.6,0,18,1,25,7.4c6.2,5.6,6.4,11.8,6.7,16
					c0.3,4.1,0.4,11.2-0.8,20.9c0,0,0,0,0,0c0.3,0,5.5,3.4,5.2,6c0,0,0,0,0,0c-0.2,0-4.2-0.4-6.6-1.6c0,0.1,0.6,22.1,0.4,32.8
					c0,0.5,0,1,0,1.6c0.3,0.3,1.4,1.3,1.3,3.5c-0.2,2.4-1.3,3-1.5,3.1c-0.3,7.6-0.7,13.9-0.7,13.9s1.9,4.1,1.9,10.2
					c0,6.2,0.6,15.2-2.2,21.7c-2.9,6.5-7.6,11.3-15.3,12c-7.7,0.7-8.9,0.7-13.4,0.7c0,0,0,0,0,0c0,0,0,0,0,0c0,0,0,0,0,0
					c-0.1,0-0.1,0-0.2,0c-4.3,0-5.6,0-13.2-0.7c-7.7-0.7-12.5-5.5-15.3-12c-2.9-6.5-2.2-15.6-2.2-21.7c0-6.2,1.9-10.2,1.9-10.2
					s-0.4-6.3-0.7-13.9c-0.1,0-1.4-0.6-1.5-3.1c-0.1-2.2,1-3.3,1.3-3.5c0-0.5,0-1,0-1.5c-0.2-10.7,0.4-32.7,0.4-32.8
					c-2.5,1.3-6.6,1.6-6.6,1.6c-0.3-2.6,4.9-6,5.2-6c0,0,0,0,0,0c-1.1-9.7-1.1-16.7-0.8-20.9c0.3-4.1,0.5-10.4,6.7-15.9
					C230.7,123.1,243,122.1,248.7,122.1C248.7,122.1,248.7,122.1,248.7,122.1C248.7,122.1,248.7,122.1,248.7,122.1
					C248.7,122.1,248.7,122.1,248.7,122.1 M248.7,119.1C248.7,119.1,248.6,119.1,248.7,119.1c-4.4,0-18.7,0.6-27.1,8.1
					c-6.9,6.2-7.4,13.3-7.7,17.6l0,0.4c-0.3,4-0.4,10.5,0.6,19.6c-1.5,1.1-2.8,2.5-2.8,2.5c-1.6,1.8-2.4,3.6-2.2,5.3
					c0.2,1.5,1.5,2.7,3,2.7c0.1,0,0.1,0,0.2,0c0,0,1.5-0.1,3.4-0.5c-0.3,13.3-0.4,23-0.3,28.8c0,0.1,0,0.2,0,0.4
					c-0.7,1-1.4,2.6-1.3,4.8c0.1,2.1,0.8,3.5,1.6,4.3c0.2,5.6,0.5,10.2,0.6,11.9c-0.6,1.6-1.9,5.5-1.9,10.7c0,0.9,0,1.9,0,2.9
					c-0.1,6.2-0.2,13.9,2.5,20.1c3.7,8.4,9.7,13.1,17.8,13.8c7.8,0.7,9.2,0.7,13.5,0.7h0c0.1,0,0.1,0,0.2,0s0.1,0,0.2,0
					c4.3,0,5.7,0,13.5-0.7c8.1-0.7,14.1-5.4,17.8-13.8c2.7-6.1,2.6-13.9,2.5-20.1c0-1,0-2,0-2.9c0-5.2-1.3-9.1-1.9-10.7
					c0.1-1.7,0.4-6.4,0.6-12c0.8-1,1.5-2.4,1.6-4.3c0.1-2.2-0.6-3.8-1.3-4.8c0-0.1,0-0.3,0-0.4c0.1-5.7,0-15.8-0.3-28.7
					c1.8,0.4,3.3,0.5,3.6,0.5c0.2,0,0.3,0,0.5,0c1.3-0.2,2.4-1.3,2.5-2.6c0.2-1.7-0.5-3.5-2.2-5.3c0,0-1.3-1.4-2.9-2.5
					c1-9.6,0.8-16.3,0.6-19.6l0-0.4c-0.3-4.2-0.8-11.3-7.7-17.6C267.4,119.8,253.1,119.1,248.7,119.1
					C248.8,119.1,248.7,119.1,248.7,119.1L248.7,119.1z"/>
			</g>
			<path fill="#415463" d="M247,126.6c0-0.4,0.8-0.7,1.7-0.7c0.9,0,1.7,0.3,1.7,0.7c0,0.4-0.8,0.7-1.7,0.7
				C247.7,127.3,247,127,247,126.6z"/>
			<path fill="#415463" d="M221.1,136.1c-0.5-0.7,0.6-2.5,2.6-4c2-1.4,4-2,4.6-1.2c0.5,0.8-0.6,2.5-2.6,4
				C223.7,136.3,221.6,136.9,221.1,136.1z"/>
			<path fill="#415463" d="M271.7,134.9c-2-1.4-3.2-3.2-2.6-4c0.5-0.7,2.6-0.2,4.6,1.2c2,1.4,3.2,3.2,2.6,3.9
				C275.7,136.9,273.7,136.3,271.7,134.9z"/>
			<path fill="#415463" d="M276.4,225.4l-2,16.4c0,0-1.2-8.5-1.7-14.9c-0.6-6.4-0.1-31.8,0.6-37.7c0.7-5.5,3.2-25.5,3.2-25.5
				C277,178.4,276.4,225.4,276.4,225.4z"/>
			<path fill="#415463" d="M222.2,158.8l0.1-0.1c2.5-4.9,7.1-8.4,13.7-10.5c5.7-1.8,11.2-2,12.8-2c1.6,0,7,0.2,12.8,2
				c6.6,2.1,11.2,5.7,13.7,10.5l0.1,0.1l-0.1,0c-0.2,1-2.1,15-3.1,22.4l0,0.1l-0.1,0c0,0-2.3-0.9-6.2-1.7c-3.7-0.8-9.6-1.7-17-1.7
				c-7.4,0-13.3,0.9-17,1.7c-4,0.8-6.2,1.7-6.2,1.7l-0.1,0l0-0.1C224.3,173.8,222.4,159.9,222.2,158.8L222.2,158.8z"/>
			<path fill="#415463" d="M220.9,225.4c0,0-0.6-47,0-61.7c0,0,2.5,20,3.2,25.5c0.7,5.9,1.1,31.3,0.6,37.7
				c-0.6,6.4-1.7,14.9-1.7,14.9L220.9,225.4z"/>
			<path fill="#415463" d="M228.6,253.3L228.6,253.3L228.6,253.3c0,0-0.3-5.6-0.5-11.1c-0.1-2.8-0.2-5.5-0.3-7.6
				c-0.1-1.9-0.1-2.7-0.1-3.2c0-0.1,0-0.2,0-0.3l0,0l0,0c0-0.1,0-0.1,0.1-0.1l0.1,0l0,0.1c5,2.6,20.6,2.7,20.7,2.7
				c0.2,0,15.8,0,20.7-2.7l0,0l0.1,0c0,0,0.1,0,0.1,0.1h0l0,0c0,0.3,0,1.1-0.1,3.4c-0.1,2.1-0.2,4.9-0.3,7.6
				c-0.2,5.5-0.4,11.1-0.4,11.1l0,0c-0.1,0.2-2.3,5.9-18.9,5.9l0,0h-0.2C244.6,259.3,232.5,258.7,228.6,253.3z"/>
			<rect x="244.2" y="260.4" fill="#415463" width="8.9" height="0.9"/>
			<path fill="#415463" d="M226.8,264.3c-1.8-1-3-2.4-2.6-3.1c0.4-0.7,2.2-0.4,4,0.6c1.8,1,3,2.4,2.6,3.1
				C230.4,265.5,228.6,265.3,226.8,264.3z"/>
			<path fill="#415463" d="M266.5,264.8c-0.4-0.7,0.8-2.1,2.6-3.1c1.8-1,3.6-1.3,4-0.6c0.4,0.7-0.8,2.1-2.6,3.1
				C268.7,265.3,266.9,265.5,266.5,264.8z"/>
		</g>
	</g>
	<g>
		<g>
			
				<line fill="none" stroke="#415463" stroke-linecap="round" stroke-linejoin="round" stroke-miterlimit="10" stroke-dasharray="12,6" x1="200.7" y1="277.3" x2="200.7" y2="95.1"/>
			
				<path fill="none" stroke="#415463" stroke-linecap="round" stroke-linejoin="round" stroke-miterlimit="10" stroke-dasharray="12,6" d="
				M315,158.8l-96.5-16.6c-6-1-12.3-1.6-18.5-1.6c-6.3,0-12.5,0.5-18.5,1.6L85,158.8"/>
			
				<path fill="none" stroke="#415463" stroke-linecap="round" stroke-linejoin="round" stroke-miterlimit="10" stroke-dasharray="12,6" d="
				M315,204.4l-96.5-16.6c-6-1-12.3-1.6-18.5-1.6c-6.3,0-12.5,0.5-18.5,1.6L85,204.4"/>
			
				<path fill="none" stroke="#415463" stroke-linecap="round" stroke-linejoin="round" stroke-miterlimit="10" stroke-dasharray="12,6" d="
				M315,250l-96.5-16.6c-6-1-12.3-1.6-18.5-1.6c-6.3,0-12.5,0.5-18.5,1.6L85,250"/>
		</g>
		<path fill="none" stroke="#415463" stroke-width="3" stroke-linejoin="round" stroke-miterlimit="10" d="M97.8,293.3l83.6-14.4
			c6-1,12.3-1.6,18.5-1.6c6.2,0,12.5,0.5,18.5,1.6l83.6,14.4l12.8,7.8V113.3l0,0l-96.5-16.6c-6-1-12.3-1.6-18.5-1.6
			c-6.3,0-12.5,0.5-18.5,1.6L85,113.3l0,0v187.9L97.8,293.3z"/>
	</g>
</g>
</svg>
