<?xml version="1.0" encoding="utf-8"?>
<!-- Generator: Adobe Illustrator 18.0.0, SVG Export Plug-In . SVG Version: 6.00 Build 0)  -->
<!DOCTYPE svg PUBLIC "-//W3C//DTD SVG 1.1//EN" "http://www.w3.org/Graphics/SVG/1.1/DTD/svg11.dtd">
<svg version="1.1" id="Layer_1" xmlns="http://www.w3.org/2000/svg" xmlns:xlink="http://www.w3.org/1999/xlink" x="0px" y="0px"
	 viewBox="0 0 400 400" enable-background="new 0 0 400 400" xml:space="preserve">
<path fill="#D9DDE0" d="M315,376.6V38.3v0l-96.5-16.1c-6-1-12.3-1.5-18.5-1.5c-6.3,0-12.5,0.5-18.5,1.5L85,38.3l0,0v338.3
	c0,0,82.1,2.7,115.7,2.7S315,376.6,315,376.6z"/>
<g>
	<g>
		<g>
			<path fill="#FFFFFF" d="M248.5,346.2c-4.3,0-5.6,0-13.3-0.7c-7.5-0.7-13.1-5-16.5-12.9c-2.6-5.8-2.5-13.4-2.4-19.4c0-1,0-2,0-2.9
				c0-5.4,1.4-9.3,1.9-10.5c-0.1-1.4-0.4-6.6-0.6-12.8c-0.7-0.6-1.4-1.7-1.6-3.8c-0.1-2.1,0.7-3.5,1.3-4.2c0-0.3,0-0.6,0-0.9
				c-0.1-6.1,0-16.4,0.3-30.7c-2.4,0.7-5,0.9-5,0.9c0,0-0.1,0-0.1,0c-0.8,0-1.4-0.6-1.5-1.3c-0.1-1.3,0.5-2.7,1.8-4.2
				c0.6-0.7,2.1-2,3.3-2.8c-1.1-9.9-0.9-16.9-0.7-20.2l0-0.4c0.3-4.3,0.7-10.7,7.2-16.5c8-7.2,21.8-7.8,26-7.8c0,0,0.1,0,0.1,0
				c4.2,0,18,0.6,26,7.8c6.5,5.8,6.9,12.3,7.2,16.5l0,0.4c0.2,3.3,0.4,10.3-0.7,20.2c1.2,0.8,2.7,2.1,3.3,2.8
				c1.3,1.5,1.9,2.9,1.8,4.2c-0.1,0.7-0.6,1.2-1.3,1.3c-0.1,0-0.1,0-0.2,0c-0.3,0-2.7-0.2-5.1-0.9c0.3,13.8,0.4,24.7,0.3,30.7l0,0.9
				c0.6,0.7,1.4,2.1,1.3,4.2c-0.1,2.1-0.9,3.2-1.6,3.8c-0.2,6.2-0.6,11.4-0.6,12.8c0.5,1.2,1.9,5.1,1.9,10.5c0,0.9,0,1.9,0,2.9
				c0.1,6.1,0.2,13.6-2.4,19.4c-3.5,7.9-9,12.2-16.5,12.9c-7.8,0.7-9.1,0.7-13.4,0.7c0,0-0.1,0-0.1,0
				C248.6,346.2,248.5,346.2,248.5,346.2z"/>
			<path fill="#415463" d="M248.7,196.5C248.7,196.5,248.7,196.5,248.7,196.5c5.6,0,18,1,25,7.4c6.2,5.6,6.4,11.8,6.7,16
				c0.3,4.1,0.4,11.2-0.8,20.9c0,0,0,0,0,0c0.3,0,5.5,3.4,5.2,6c0,0,0,0,0,0c-0.2,0-4.2-0.4-6.6-1.6c0,0.1,0.6,22.1,0.4,32.8
				c0,0.5,0,1,0,1.6c0.3,0.3,1.4,1.3,1.3,3.5c-0.2,2.4-1.3,3-1.5,3.1c-0.3,7.6-0.7,13.9-0.7,13.9s1.9,4.1,1.9,10.2
				c0,6.2,0.6,15.2-2.2,21.7c-2.9,6.5-7.6,11.3-15.3,12c-7.7,0.7-8.9,0.7-13.3,0.7c0,0,0,0,0,0c0,0,0,0,0,0c0,0,0,0,0,0
				c-0.1,0-0.1,0-0.2,0c-4.3,0-5.6,0-13.2-0.7c-7.7-0.7-12.5-5.5-15.3-12c-2.9-6.5-2.2-15.6-2.2-21.7c0-6.2,1.9-10.2,1.9-10.2
				s-0.4-6.3-0.7-13.9c-0.1,0-1.4-0.6-1.5-3.1c-0.1-2.2,1-3.3,1.3-3.5c0-0.5,0-1,0-1.5c-0.2-10.7,0.4-32.7,0.4-32.8
				c-2.5,1.3-6.6,1.6-6.6,1.6c-0.3-2.6,4.9-6,5.2-6c0,0,0,0,0,0c-1.1-9.7-1.1-16.7-0.8-20.9c0.3-4.1,0.5-10.4,6.7-15.9
				C230.7,197.5,243,196.5,248.7,196.5C248.7,196.5,248.7,196.5,248.7,196.5C248.7,196.5,248.7,196.5,248.7,196.5
				C248.7,196.5,248.7,196.5,248.7,196.5 M248.7,193.5C248.7,193.5,248.6,193.5,248.7,193.5c-4.4,0-18.7,0.6-27.1,8.1
				c-6.9,6.2-7.4,13.3-7.7,17.6l0,0.4c-0.3,4-0.4,10.5,0.6,19.6c-1.5,1.1-2.8,2.5-2.8,2.5c-1.6,1.8-2.4,3.6-2.2,5.3
				c0.2,1.5,1.5,2.7,3,2.7c0.1,0,0.1,0,0.2,0c0,0,1.5-0.1,3.4-0.5c-0.3,13.3-0.4,23-0.3,28.8c0,0.1,0,0.2,0,0.4
				c-0.7,1-1.4,2.6-1.3,4.8c0.1,2.1,0.8,3.5,1.6,4.3c0.2,5.6,0.5,10.2,0.6,11.9c-0.6,1.6-1.9,5.5-1.9,10.7c0,0.9,0,1.9,0,2.9
				c-0.1,6.2-0.2,13.9,2.5,20.1c3.7,8.4,9.7,13.1,17.8,13.8c7.8,0.7,9.2,0.7,13.5,0.7h0c0.1,0,0.1,0,0.2,0c0.1,0,0.1,0,0.2,0
				c4.3,0,5.7,0,13.5-0.7c8.1-0.7,14.1-5.4,17.8-13.8c2.7-6.1,2.6-13.9,2.5-20.1c0-1,0-2,0-2.9c0-5.2-1.3-9.1-1.9-10.7
				c0.1-1.7,0.4-6.4,0.6-12c0.8-1,1.5-2.4,1.6-4.3c0.1-2.2-0.6-3.8-1.3-4.8c0-0.1,0-0.3,0-0.4c0.1-5.7,0-15.8-0.3-28.7
				c1.8,0.4,3.3,0.5,3.6,0.5c0.2,0,0.3,0,0.5,0c1.3-0.2,2.4-1.3,2.5-2.6c0.2-1.7-0.5-3.5-2.2-5.3c0,0-1.3-1.4-2.9-2.5
				c1-9.6,0.8-16.3,0.6-19.6l0-0.4c-0.3-4.2-0.8-11.3-7.7-17.6C267.4,194.2,253.1,193.5,248.7,193.5
				C248.8,193.5,248.7,193.5,248.7,193.5L248.7,193.5z"/>
		</g>
		<path fill="#415463" d="M247,201c0-0.4,0.8-0.7,1.7-0.7c0.9,0,1.7,0.3,1.7,0.7c0,0.4-0.8,0.7-1.7,0.7
			C247.7,201.6,247,201.3,247,201z"/>
		<path fill="#415463" d="M221.1,210.5c-0.5-0.7,0.6-2.5,2.6-4c2-1.4,4-2,4.6-1.2c0.5,0.8-0.6,2.5-2.6,4
			C223.7,210.7,221.6,211.3,221.1,210.5z"/>
		<path fill="#415463" d="M271.7,209.3c-2-1.4-3.2-3.2-2.6-4c0.5-0.7,2.6-0.2,4.6,1.2c2,1.4,3.2,3.2,2.6,3.9
			C275.7,211.3,273.7,210.7,271.7,209.3z"/>
		<path fill="#415463" d="M276.4,299.8l-2,16.4c0,0-1.2-8.5-1.7-14.9c-0.6-6.4-0.1-31.8,0.6-37.7c0.7-5.5,3.2-25.5,3.2-25.5
			C277,252.8,276.4,299.8,276.4,299.8z"/>
		<path fill="#415463" d="M222.2,233.2l0.1-0.1c2.5-4.9,7.1-8.4,13.7-10.5c5.7-1.8,11.2-2,12.8-2c1.6,0,7,0.2,12.8,2
			c6.6,2.1,11.2,5.7,13.7,10.5l0.1,0.1l-0.1,0c-0.2,1-2.1,15-3.1,22.4l0,0.1l-0.1,0c0,0-2.3-0.9-6.2-1.7c-3.7-0.8-9.6-1.7-17-1.7
			c-7.4,0-13.3,0.9-17,1.7c-4,0.8-6.2,1.7-6.2,1.7l-0.1,0l0-0.1C224.3,248.2,222.4,234.2,222.2,233.2L222.2,233.2z"/>
		<path fill="#415463" d="M220.9,299.8c0,0-0.6-47,0-61.7c0,0,2.5,20,3.2,25.5c0.7,5.9,1.1,31.3,0.6,37.7
			c-0.6,6.4-1.7,14.9-1.7,14.9L220.9,299.8z"/>
		<path fill="#415463" d="M228.6,327.7L228.6,327.7L228.6,327.7c0,0-0.3-5.6-0.5-11.1c-0.1-2.8-0.2-5.5-0.3-7.6
			c-0.1-1.9-0.1-2.7-0.1-3.2c0-0.1,0-0.2,0-0.3l0,0l0,0c0-0.1,0-0.1,0.1-0.1l0.1,0l0,0.1c5,2.6,20.6,2.7,20.7,2.7
			c0.2,0,15.8,0,20.7-2.7l0,0l0.1,0c0,0,0.1,0,0.1,0.1h0l0,0c0,0.3,0,1.1-0.1,3.4c-0.1,2.1-0.2,4.9-0.3,7.6
			c-0.2,5.5-0.4,11.1-0.4,11.1l0,0c-0.1,0.2-2.3,5.9-18.9,5.9l0,0h-0.2C244.6,333.6,232.5,333.1,228.6,327.7z"/>
		<rect x="244.2" y="334.8" fill="#415463" width="8.9" height="0.9"/>
		<path fill="#415463" d="M226.8,338.6c-1.8-1-3-2.4-2.6-3.1c0.4-0.7,2.2-0.4,4,0.6c1.8,1,3,2.4,2.6,3.1
			C230.4,339.9,228.6,339.6,226.8,338.6z"/>
		<path fill="#415463" d="M266.5,339.2c-0.4-0.7,0.8-2.1,2.6-3.1c1.8-1,3.6-1.3,4-0.6c0.4,0.7-0.8,2.1-2.6,3.1
			C268.7,339.6,266.9,339.9,266.5,339.2z"/>
	</g>
	<g>
		<g>
			<path fill="#FFFFFF" d="M248.5,188.6c-4.3,0-5.6,0-13.3-0.7c-7.5-0.7-13.1-5-16.5-12.9c-2.6-5.8-2.5-13.4-2.4-19.4c0-1,0-2,0-2.9
				c0-5.4,1.4-9.3,1.9-10.5c-0.1-1.4-0.4-6.6-0.6-12.8c-0.7-0.6-1.4-1.7-1.6-3.8c-0.1-2.1,0.7-3.5,1.3-4.2c0-0.3,0-0.6,0-0.9
				c-0.1-6.1,0-16.4,0.3-30.7c-2.4,0.7-5,0.9-5,0.9c0,0-0.1,0-0.1,0c-0.8,0-1.4-0.6-1.5-1.3c-0.1-1.3,0.5-2.7,1.8-4.2
				c0.6-0.7,2.1-2,3.3-2.8c-1.1-9.9-0.9-16.9-0.7-20.2l0-0.4c0.3-4.3,0.7-10.7,7.2-16.5c8-7.2,21.8-7.8,26-7.8c0,0,0.1,0,0.1,0
				c4.2,0,18,0.6,26,7.8c6.5,5.8,6.9,12.3,7.2,16.5l0,0.4c0.2,3.3,0.4,10.3-0.7,20.2c1.2,0.8,2.7,2.1,3.3,2.8
				c1.3,1.5,1.9,2.9,1.8,4.2c-0.1,0.7-0.6,1.2-1.3,1.3c-0.1,0-0.1,0-0.2,0c-0.3,0-2.7-0.2-5.1-0.9c0.3,13.8,0.4,24.7,0.3,30.7l0,0.9
				c0.6,0.7,1.4,2.1,1.3,4.2c-0.1,2.1-0.9,3.2-1.6,3.8c-0.2,6.2-0.6,11.4-0.6,12.8c0.5,1.2,1.9,5.1,1.9,10.5c0,0.9,0,1.9,0,2.9
				c0.1,6.1,0.2,13.6-2.4,19.4c-3.5,7.9-9,12.2-16.5,12.9c-7.7,0.7-9.1,0.7-13.4,0.7c0,0-0.1,0-0.1,0
				C248.6,188.6,248.5,188.6,248.5,188.6z"/>
			<path fill="#415463" d="M248.7,38.9C248.7,38.9,248.7,38.9,248.7,38.9c5.6,0,18,1,25,7.4c6.2,5.6,6.4,11.8,6.7,16
				c0.3,4.1,0.4,11.2-0.8,20.9c0,0,0,0,0,0c0.3,0,5.5,3.4,5.2,6c0,0,0,0,0,0c-0.2,0-4.2-0.4-6.6-1.6c0,0.1,0.6,22.1,0.4,32.8
				c0,0.5,0,1,0,1.6c0.3,0.3,1.4,1.3,1.3,3.5c-0.2,2.4-1.3,3-1.5,3.1c-0.3,7.6-0.7,13.9-0.7,13.9s1.9,4.1,1.9,10.2
				c0,6.2,0.6,15.2-2.2,21.7c-2.9,6.5-7.6,11.3-15.3,12c-7.7,0.7-8.9,0.7-13.3,0.7c0,0,0,0,0,0c0,0,0,0,0,0c0,0,0,0,0,0
				c-0.1,0-0.1,0-0.2,0c-4.3,0-5.6,0-13.2-0.7c-7.7-0.7-12.5-5.5-15.3-12c-2.9-6.5-2.2-15.6-2.2-21.7c0-6.2,1.9-10.2,1.9-10.2
				s-0.4-6.3-0.7-13.9c-0.1,0-1.4-0.6-1.5-3.1c-0.1-2.2,1-3.3,1.3-3.5c0-0.5,0-1,0-1.5c-0.2-10.7,0.4-32.7,0.4-32.8
				c-2.5,1.3-6.6,1.6-6.6,1.6c-0.3-2.6,4.9-6,5.2-6c0,0,0,0,0,0c-1.1-9.7-1.1-16.7-0.8-20.9c0.3-4.1,0.5-10.4,6.7-15.9
				C230.7,39.9,243,38.9,248.7,38.9C248.7,38.9,248.7,38.9,248.7,38.9C248.7,38.9,248.7,38.9,248.7,38.9
				C248.7,38.9,248.7,38.9,248.7,38.9 M248.7,35.9C248.7,35.9,248.6,35.9,248.7,35.9c-4.4,0-18.7,0.6-27.1,8.1
				c-6.9,6.2-7.4,13.3-7.7,17.6l0,0.4c-0.3,4-0.4,10.5,0.6,19.6c-1.5,1.1-2.8,2.5-2.8,2.5c-1.6,1.8-2.4,3.6-2.2,5.3
				c0.2,1.5,1.5,2.7,3,2.7c0.1,0,0.1,0,0.2,0c0,0,1.5-0.1,3.4-0.5c-0.3,13.3-0.4,23-0.3,28.8c0,0.1,0,0.2,0,0.4
				c-0.7,1-1.4,2.6-1.3,4.8c0.1,2.1,0.8,3.5,1.6,4.3c0.2,5.6,0.5,10.2,0.6,11.9c-0.6,1.6-1.9,5.5-1.9,10.7c0,0.9,0,1.9,0,2.9
				c-0.1,6.2-0.2,13.9,2.5,20.1c3.7,8.4,9.7,13.1,17.8,13.8c7.8,0.7,9.2,0.7,13.5,0.7h0c0.1,0,0.1,0,0.2,0c0.1,0,0.1,0,0.2,0
				c4.3,0,5.7,0,13.5-0.7c8.1-0.7,14.1-5.4,17.8-13.8c2.7-6.1,2.6-13.9,2.5-20.1c0-1,0-2,0-2.9c0-5.2-1.3-9.1-1.9-10.7
				c0.1-1.7,0.4-6.4,0.6-12c0.8-1,1.5-2.4,1.6-4.3c0.1-2.2-0.6-3.8-1.3-4.8c0-0.1,0-0.3,0-0.4c0.1-5.7,0-15.8-0.3-28.7
				c1.8,0.4,3.3,0.5,3.6,0.5c0.2,0,0.3,0,0.5,0c1.3-0.2,2.4-1.3,2.5-2.6c0.2-1.7-0.5-3.5-2.2-5.3c0,0-1.3-1.4-2.9-2.6
				c1-9.6,0.8-16.3,0.6-19.6l0-0.4c-0.3-4.2-0.8-11.3-7.7-17.6C267.4,36.6,253.1,35.9,248.7,35.9C248.8,35.9,248.7,35.9,248.7,35.9
				L248.7,35.9z"/>
		</g>
		<path fill="#415463" d="M247,43.4c0-0.4,0.8-0.7,1.7-0.7c0.9,0,1.7,0.3,1.7,0.7c0,0.4-0.8,0.7-1.7,0.7C247.7,44,247,43.7,247,43.4
			z"/>
		<path fill="#415463" d="M221.1,52.9c-0.5-0.7,0.6-2.5,2.6-4c2-1.4,4-2,4.6-1.2c0.5,0.8-0.6,2.5-2.6,4
			C223.7,53.1,221.6,53.7,221.1,52.9z"/>
		<path fill="#415463" d="M271.7,51.7c-2-1.4-3.2-3.2-2.6-4c0.5-0.7,2.6-0.2,4.6,1.2c2,1.4,3.2,3.2,2.6,3.9
			C275.7,53.7,273.7,53.1,271.7,51.7z"/>
		<path fill="#415463" d="M276.4,142.2l-2,16.4c0,0-1.2-8.5-1.7-14.9c-0.6-6.4-0.1-31.8,0.6-37.7c0.7-5.5,3.2-25.5,3.2-25.5
			C277,95.2,276.4,142.2,276.4,142.2z"/>
		<path fill="#415463" d="M222.2,75.6l0.1-0.1c2.5-4.9,7.1-8.4,13.7-10.5c5.7-1.8,11.2-2,12.8-2c1.6,0,7,0.2,12.8,2
			c6.6,2.1,11.2,5.7,13.7,10.5l0.1,0.1l-0.1,0c-0.2,1-2.1,15-3.1,22.4l0,0.1l-0.1,0c0,0-2.3-0.9-6.2-1.7c-3.7-0.8-9.6-1.7-17-1.7
			c-7.4,0-13.3,0.9-17,1.7c-4,0.8-6.2,1.7-6.2,1.7l-0.1,0l0-0.1C224.3,90.6,222.4,76.6,222.2,75.6L222.2,75.6z"/>
		<path fill="#415463" d="M220.9,142.2c0,0-0.6-47,0-61.7c0,0,2.5,20,3.2,25.5c0.7,5.9,1.1,31.3,0.6,37.7
			c-0.6,6.4-1.7,14.9-1.7,14.9L220.9,142.2z"/>
		<path fill="#415463" d="M228.6,170.1L228.6,170.1L228.6,170.1c0,0-0.3-5.6-0.5-11.1c-0.1-2.8-0.2-5.5-0.3-7.6
			c-0.1-1.9-0.1-2.7-0.1-3.2c0-0.1,0-0.2,0-0.3l0,0l0,0c0-0.1,0-0.1,0.1-0.1l0.1,0l0,0.1c5,2.6,20.6,2.7,20.7,2.7
			c0.2,0,15.8,0,20.7-2.7l0,0l0.1,0c0,0,0.1,0,0.1,0.1h0l0,0c0,0.3,0,1.1-0.1,3.4c-0.1,2.1-0.2,4.9-0.3,7.6
			c-0.2,5.5-0.4,11.1-0.4,11.1l0,0c-0.1,0.2-2.3,5.9-18.9,5.9l0,0h-0.2C244.6,176,232.5,175.5,228.6,170.1z"/>
		<rect x="244.2" y="177.2" fill="#415463" width="8.9" height="0.9"/>
		<path fill="#415463" d="M226.8,181c-1.8-1-3-2.4-2.6-3.1c0.4-0.7,2.2-0.4,4,0.6c1.8,1,3,2.4,2.6,3.1
			C230.4,182.3,228.6,182,226.8,181z"/>
		<path fill="#415463" d="M266.5,181.6c-0.4-0.7,0.8-2.1,2.6-3.1c1.8-1,3.6-1.3,4-0.6c0.4,0.7-0.8,2.1-2.6,3.1
			C268.7,182,266.9,182.3,266.5,181.6z"/>
	</g>
</g>
<g>
	<g>
		<g>
			<path fill="#FFFFFF" d="M151.1,346.2c-4.3,0-5.6,0-13.3-0.7c-7.5-0.7-13.1-5-16.5-12.9c-2.6-5.8-2.5-13.4-2.4-19.4c0-1,0-2,0-2.9
				c0-5.4,1.4-9.3,1.9-10.5c-0.1-1.4-0.4-6.6-0.6-12.8c-0.7-0.6-1.4-1.7-1.6-3.8c-0.1-2.1,0.7-3.5,1.3-4.2c0-0.3,0-0.6,0-0.9
				c-0.1-6.1,0-16.4,0.3-30.7c-2.4,0.7-5,0.9-5,0.9c0,0-0.1,0-0.1,0c-0.8,0-1.4-0.6-1.5-1.3c-0.1-1.3,0.5-2.7,1.8-4.2
				c0.6-0.7,2.1-2,3.3-2.8c-1.1-9.9-0.9-16.9-0.7-20.2l0-0.4c0.3-4.3,0.7-10.7,7.2-16.6c8-7.2,21.8-7.8,26-7.8c0,0,0.1,0,0.1,0
				c4.2,0,18,0.6,26,7.8c6.5,5.8,6.9,12.3,7.2,16.5l0,0.4c0.2,3.3,0.4,10.3-0.7,20.2c1.2,0.8,2.7,2.1,3.3,2.8
				c1.3,1.5,1.9,2.9,1.8,4.2c-0.1,0.7-0.6,1.2-1.3,1.3c-0.1,0-0.1,0-0.2,0c-0.3,0-2.7-0.2-5.1-0.9c0.3,13.8,0.4,24.7,0.3,30.7l0,0.9
				c0.6,0.7,1.4,2.1,1.3,4.2c-0.1,2.1-0.9,3.2-1.6,3.8c-0.2,6.2-0.6,11.4-0.6,12.8c0.5,1.2,1.9,5.1,1.9,10.5c0,0.9,0,1.9,0,2.9
				c0.1,6.1,0.2,13.6-2.4,19.4c-3.5,7.9-9,12.2-16.5,12.9c-7.8,0.7-9.1,0.7-13.4,0.7c0,0-0.1,0-0.1,0
				C151.3,346.2,151.1,346.2,151.1,346.2z"/>
			<path fill="#415463" d="M151.3,196.5C151.3,196.5,151.3,196.5,151.3,196.5c5.6,0,18,1,25,7.4c6.2,5.6,6.4,11.8,6.7,16
				c0.3,4.1,0.4,11.2-0.8,20.9c0,0,0,0,0,0c0.3,0,5.5,3.4,5.2,6c0,0,0,0,0,0c-0.2,0-4.2-0.4-6.6-1.6c0,0.1,0.6,22.1,0.4,32.8
				c0,0.5,0,1,0,1.6c0.3,0.3,1.4,1.3,1.3,3.5c-0.2,2.4-1.3,3-1.5,3.1c-0.3,7.6-0.7,13.9-0.7,13.9s1.9,4.1,1.9,10.2
				c0,6.2,0.6,15.2-2.2,21.7c-2.9,6.5-7.6,11.3-15.3,12c-7.7,0.7-8.9,0.7-13.4,0.7c0,0,0,0,0,0c0,0,0,0,0,0c0,0,0,0,0,0
				c-0.1,0-0.1,0-0.2,0c-4.3,0-5.6,0-13.2-0.7c-7.7-0.7-12.4-5.5-15.3-12c-2.9-6.5-2.2-15.6-2.2-21.7c0-6.2,1.9-10.2,1.9-10.2
				s-0.4-6.3-0.7-13.9c-0.1,0-1.4-0.6-1.5-3.1c-0.1-2.2,1-3.3,1.3-3.5c0-0.5,0-1,0-1.5c-0.2-10.7,0.4-32.7,0.4-32.8
				c-2.5,1.3-6.6,1.6-6.6,1.6c-0.3-2.6,4.9-6,5.2-6c0,0,0,0,0,0c-1.1-9.7-1.1-16.7-0.8-20.9c0.3-4.1,0.5-10.4,6.7-15.9
				C133.4,197.5,145.7,196.5,151.3,196.5C151.3,196.5,151.3,196.5,151.3,196.5C151.3,196.5,151.3,196.5,151.3,196.5
				C151.3,196.5,151.3,196.5,151.3,196.5 M151.3,193.5C151.3,193.5,151.3,193.5,151.3,193.5c-4.4,0-18.7,0.6-27.1,8.1
				c-6.9,6.2-7.4,13.3-7.7,17.6l0,0.4c-0.3,4-0.4,10.5,0.6,19.6c-1.5,1.1-2.8,2.5-2.8,2.5c-1.6,1.8-2.4,3.6-2.2,5.3
				c0.2,1.5,1.5,2.7,3,2.7c0.1,0,0.1,0,0.2,0c0,0,1.5-0.1,3.4-0.5c-0.3,13.3-0.4,23-0.3,28.8c0,0.1,0,0.2,0,0.4
				c-0.7,1-1.4,2.6-1.3,4.8c0.1,2.1,0.8,3.5,1.6,4.3c0.2,5.6,0.5,10.2,0.6,11.9c-0.6,1.6-1.9,5.5-1.9,10.7c0,0.9,0,1.9,0,2.9
				c-0.1,6.2-0.2,13.9,2.5,20.1c3.7,8.4,9.7,13.1,17.8,13.8c7.8,0.7,9.2,0.7,13.5,0.7h0c0.1,0,0.1,0,0.2,0s0.1,0,0.2,0
				c4.3,0,5.7,0,13.5-0.7c8.1-0.7,14.1-5.4,17.8-13.8c2.7-6.1,2.6-13.9,2.5-20.1c0-1,0-2,0-2.9c0-5.2-1.3-9.1-1.9-10.7
				c0.1-1.7,0.4-6.4,0.6-12c0.8-1,1.5-2.4,1.6-4.3c0.1-2.2-0.6-3.8-1.3-4.8c0-0.1,0-0.3,0-0.4c0.1-5.7,0-15.8-0.3-28.7
				c1.8,0.4,3.3,0.5,3.6,0.5c0.2,0,0.3,0,0.5,0c1.3-0.2,2.4-1.3,2.5-2.6c0.2-1.7-0.5-3.5-2.2-5.3c0,0-1.3-1.4-2.9-2.5
				c1-9.6,0.8-16.3,0.6-19.6l0-0.4c-0.3-4.2-0.8-11.3-7.7-17.6C170,194.2,155.8,193.5,151.3,193.5
				C151.4,193.5,151.4,193.5,151.3,193.5L151.3,193.5z"/>
		</g>
		<path fill="#415463" d="M149.6,201c0-0.4,0.8-0.7,1.7-0.7c0.9,0,1.7,0.3,1.7,0.7c0,0.4-0.8,0.7-1.7,0.7
			C150.4,201.6,149.6,201.3,149.6,201z"/>
		<path fill="#415463" d="M123.7,210.5c-0.5-0.7,0.6-2.5,2.6-4c2-1.4,4-2,4.6-1.2c0.5,0.8-0.6,2.5-2.6,4
			C126.3,210.7,124.2,211.3,123.7,210.5z"/>
		<path fill="#415463" d="M174.3,209.3c-2-1.4-3.2-3.2-2.6-4c0.5-0.7,2.6-0.2,4.6,1.2c2,1.4,3.2,3.2,2.6,3.9
			C178.3,211.3,176.3,210.7,174.3,209.3z"/>
		<path fill="#415463" d="M179,299.8l-2,16.4c0,0-1.2-8.5-1.7-14.9c-0.6-6.4-0.1-31.8,0.6-37.7c0.7-5.5,3.2-25.5,3.2-25.5
			C179.6,252.8,179,299.8,179,299.8z"/>
		<path fill="#415463" d="M124.8,233.2l0.1-0.1c2.5-4.9,7.1-8.4,13.7-10.5c5.7-1.8,11.2-2,12.8-2c1.6,0,7,0.2,12.8,2
			c6.6,2.1,11.2,5.7,13.7,10.5l0.1,0.1l-0.1,0c-0.2,1-2.1,15-3.1,22.4l0,0.1l-0.1,0c0,0-2.3-0.9-6.2-1.7c-3.7-0.8-9.6-1.7-17-1.7
			c-7.4,0-13.3,0.9-17,1.7c-4,0.8-6.2,1.7-6.2,1.7l-0.1,0l0-0.1C127,248.2,125.1,234.2,124.8,233.2L124.8,233.2z"/>
		<path fill="#415463" d="M123.6,299.8c0,0-0.6-47,0-61.7c0,0,2.5,20,3.2,25.5c0.7,5.9,1.1,31.3,0.6,37.7
			c-0.6,6.4-1.7,14.9-1.7,14.9L123.6,299.8z"/>
		<path fill="#415463" d="M131.2,327.7L131.2,327.7L131.2,327.7c0,0-0.3-5.6-0.5-11.1c-0.1-2.8-0.2-5.5-0.3-7.6
			c-0.1-1.9-0.1-2.7-0.1-3.2c0-0.1,0-0.2,0-0.3l0,0l0,0c0-0.1,0-0.1,0.1-0.1l0.1,0l0,0.1c5,2.6,20.6,2.7,20.7,2.7
			c0.2,0,15.8,0,20.7-2.7l0,0l0.1,0c0,0,0.1,0,0.1,0.1h0l0,0c0,0.3,0,1.1-0.1,3.4c-0.1,2.1-0.2,4.9-0.3,7.6
			c-0.2,5.5-0.4,11.1-0.4,11.1l0,0c-0.1,0.2-2.3,5.9-18.9,5.9l0,0h-0.2C147.2,333.6,135.1,333.1,131.2,327.7z"/>
		<rect x="146.8" y="334.8" fill="#415463" width="8.9" height="0.9"/>
		<path fill="#415463" d="M129.4,338.6c-1.8-1-3-2.4-2.6-3.1c0.4-0.7,2.2-0.4,4,0.6c1.8,1,3,2.4,2.6,3.1
			C133.1,339.9,131.3,339.6,129.4,338.6z"/>
		<path fill="#415463" d="M169.2,339.2c-0.4-0.7,0.8-2.1,2.6-3.1c1.8-1,3.6-1.3,4-0.6c0.4,0.7-0.8,2.1-2.6,3.1
			C171.3,339.6,169.5,339.9,169.2,339.2z"/>
	</g>
	<g>
		<g>
			<path fill="#FFFFFF" d="M151.1,188.6c-4.3,0-5.6,0-13.3-0.7c-7.5-0.7-13.1-5-16.5-12.9c-2.6-5.8-2.5-13.4-2.4-19.4c0-1,0-2,0-2.9
				c0-5.4,1.4-9.3,1.9-10.5c-0.1-1.4-0.4-6.6-0.6-12.8c-0.7-0.6-1.4-1.7-1.6-3.8c-0.1-2.1,0.7-3.5,1.3-4.2c0-0.3,0-0.6,0-0.9
				c-0.1-6.1,0-16.4,0.3-30.7c-2.4,0.7-5,0.9-5,0.9c0,0-0.1,0-0.1,0c-0.8,0-1.4-0.6-1.5-1.3c-0.1-1.3,0.5-2.7,1.8-4.2
				c0.6-0.7,2.1-2,3.3-2.8c-1.1-9.9-0.9-16.9-0.7-20.2l0-0.4c0.3-4.3,0.7-10.7,7.2-16.6c8-7.2,21.8-7.8,26-7.8c0,0,0.1,0,0.1,0
				c4.2,0,18,0.6,26,7.8c6.5,5.8,6.9,12.3,7.2,16.5l0,0.4c0.2,3.3,0.4,10.3-0.7,20.2c1.2,0.8,2.7,2.1,3.3,2.8
				c1.3,1.5,1.9,2.9,1.8,4.2c-0.1,0.7-0.6,1.2-1.3,1.3c-0.1,0-0.1,0-0.2,0c-0.3,0-2.7-0.2-5.1-0.9c0.3,13.8,0.4,24.7,0.3,30.7l0,0.9
				c0.6,0.7,1.4,2.1,1.3,4.2c-0.1,2.1-0.9,3.2-1.6,3.8c-0.2,6.2-0.6,11.4-0.6,12.8c0.5,1.2,1.9,5.1,1.9,10.5c0,0.9,0,1.9,0,2.9
				c0.1,6.1,0.2,13.6-2.4,19.4c-3.5,7.9-9,12.2-16.5,12.9c-7.7,0.7-9.1,0.7-13.4,0.7c0,0-0.1,0-0.1,0
				C151.3,188.6,151.1,188.6,151.1,188.6z"/>
			<path fill="#415463" d="M151.3,38.9C151.3,38.9,151.3,38.9,151.3,38.9c5.6,0,18,1,25,7.4c6.2,5.6,6.4,11.8,6.7,16
				c0.3,4.1,0.4,11.2-0.8,20.9c0,0,0,0,0,0c0.3,0,5.5,3.4,5.2,6c0,0,0,0,0,0c-0.2,0-4.2-0.4-6.6-1.6c0,0.1,0.6,22.1,0.4,32.8
				c0,0.5,0,1,0,1.6c0.3,0.3,1.4,1.3,1.3,3.5c-0.2,2.4-1.3,3-1.5,3.1c-0.3,7.6-0.7,13.9-0.7,13.9s1.9,4.1,1.9,10.2
				c0,6.2,0.6,15.2-2.2,21.7c-2.9,6.5-7.6,11.3-15.3,12c-7.7,0.7-8.9,0.7-13.4,0.7c0,0,0,0,0,0c0,0,0,0,0,0c0,0,0,0,0,0
				c-0.1,0-0.1,0-0.2,0c-4.3,0-5.6,0-13.2-0.7c-7.7-0.7-12.4-5.5-15.3-12c-2.9-6.5-2.2-15.6-2.2-21.7c0-6.2,1.9-10.2,1.9-10.2
				s-0.4-6.3-0.7-13.9c-0.1,0-1.4-0.6-1.5-3.1c-0.1-2.2,1-3.3,1.3-3.5c0-0.5,0-1,0-1.5c-0.2-10.7,0.4-32.7,0.4-32.8
				c-2.5,1.3-6.6,1.6-6.6,1.6c-0.3-2.6,4.9-6,5.2-6c0,0,0,0,0,0c-1.1-9.7-1.1-16.7-0.8-20.9c0.3-4.1,0.5-10.4,6.7-15.9
				C133.4,39.9,145.7,38.9,151.3,38.9C151.3,38.9,151.3,38.9,151.3,38.9C151.3,38.9,151.3,38.9,151.3,38.9
				C151.3,38.9,151.3,38.9,151.3,38.9 M151.3,35.9C151.3,35.9,151.3,35.9,151.3,35.9c-4.4,0-18.7,0.6-27.1,8.1
				c-6.9,6.2-7.4,13.3-7.7,17.6l0,0.4c-0.3,4-0.4,10.5,0.6,19.6c-1.5,1.1-2.8,2.5-2.8,2.5c-1.6,1.8-2.4,3.6-2.2,5.3
				c0.2,1.5,1.5,2.7,3,2.7c0.1,0,0.1,0,0.2,0c0,0,1.5-0.1,3.4-0.5c-0.3,13.3-0.4,23-0.3,28.8c0,0.1,0,0.2,0,0.4
				c-0.7,1-1.4,2.6-1.3,4.8c0.1,2.1,0.8,3.5,1.6,4.3c0.2,5.6,0.5,10.2,0.6,11.9c-0.6,1.6-1.9,5.5-1.9,10.7c0,0.9,0,1.9,0,2.9
				c-0.1,6.2-0.2,13.9,2.5,20.1c3.7,8.4,9.7,13.1,17.8,13.8c7.8,0.7,9.2,0.7,13.5,0.7h0c0.1,0,0.1,0,0.2,0s0.1,0,0.2,0
				c4.3,0,5.7,0,13.5-0.7c8.1-0.7,14.1-5.4,17.8-13.8c2.7-6.1,2.6-13.9,2.5-20.1c0-1,0-2,0-2.9c0-5.2-1.3-9.1-1.9-10.7
				c0.1-1.7,0.4-6.4,0.6-12c0.8-1,1.5-2.4,1.6-4.3c0.1-2.2-0.6-3.8-1.3-4.8c0-0.1,0-0.3,0-0.4c0.1-5.7,0-15.8-0.3-28.7
				c1.8,0.4,3.3,0.5,3.6,0.5c0.2,0,0.3,0,0.5,0c1.3-0.2,2.4-1.3,2.5-2.6c0.2-1.7-0.5-3.5-2.2-5.3c0,0-1.3-1.4-2.9-2.6
				c1-9.6,0.8-16.3,0.6-19.6l0-0.4c-0.3-4.2-0.8-11.3-7.7-17.6C170,36.6,155.8,35.9,151.3,35.9C151.4,35.9,151.4,35.9,151.3,35.9
				L151.3,35.9z"/>
		</g>
		<path fill="#415463" d="M149.6,43.4c0-0.4,0.8-0.7,1.7-0.7c0.9,0,1.7,0.3,1.7,0.7c0,0.4-0.8,0.7-1.7,0.7
			C150.4,44,149.6,43.7,149.6,43.4z"/>
		<path fill="#415463" d="M123.7,52.9c-0.5-0.7,0.6-2.5,2.6-4c2-1.4,4-2,4.6-1.2c0.5,0.8-0.6,2.5-2.6,4
			C126.3,53.1,124.2,53.7,123.7,52.9z"/>
		<path fill="#415463" d="M174.3,51.7c-2-1.4-3.2-3.2-2.6-4c0.5-0.7,2.6-0.2,4.6,1.2c2,1.4,3.2,3.2,2.6,3.9
			C178.3,53.7,176.3,53.1,174.3,51.7z"/>
		<path fill="#415463" d="M179,142.2l-2,16.4c0,0-1.2-8.5-1.7-14.9c-0.6-6.4-0.1-31.8,0.6-37.7c0.7-5.5,3.2-25.5,3.2-25.5
			C179.6,95.2,179,142.2,179,142.2z"/>
		<path fill="#415463" d="M124.8,75.6l0.1-0.1c2.5-4.9,7.1-8.4,13.7-10.5c5.7-1.8,11.2-2,12.8-2c1.6,0,7,0.2,12.8,2
			c6.6,2.1,11.2,5.7,13.7,10.5l0.1,0.1l-0.1,0c-0.2,1-2.1,15-3.1,22.4l0,0.1l-0.1,0c0,0-2.3-0.9-6.2-1.7c-3.7-0.8-9.6-1.7-17-1.7
			c-7.4,0-13.3,0.9-17,1.7c-4,0.8-6.2,1.7-6.2,1.7l-0.1,0l0-0.1C127,90.6,125.1,76.6,124.8,75.6L124.8,75.6z"/>
		<path fill="#415463" d="M123.6,142.2c0,0-0.6-47,0-61.7c0,0,2.5,20,3.2,25.5c0.7,5.9,1.1,31.3,0.6,37.7
			c-0.6,6.4-1.7,14.9-1.7,14.9L123.6,142.2z"/>
		<path fill="#415463" d="M131.2,170.1L131.2,170.1L131.2,170.1c0,0-0.3-5.6-0.5-11.1c-0.1-2.8-0.2-5.5-0.3-7.6
			c-0.1-1.9-0.1-2.7-0.1-3.2c0-0.1,0-0.2,0-0.3l0,0l0,0c0-0.1,0-0.1,0.1-0.1l0.1,0l0,0.1c5,2.6,20.6,2.7,20.7,2.7
			c0.2,0,15.8,0,20.7-2.7l0,0l0.1,0c0,0,0.1,0,0.1,0.1h0l0,0c0,0.3,0,1.1-0.1,3.4c-0.1,2.1-0.2,4.9-0.3,7.6
			c-0.2,5.5-0.4,11.1-0.4,11.1l0,0c-0.1,0.2-2.3,5.9-18.9,5.9l0,0h-0.2C147.2,176,135.1,175.5,131.2,170.1z"/>
		<rect x="146.8" y="177.2" fill="#415463" width="8.9" height="0.9"/>
		<path fill="#415463" d="M129.4,181c-1.8-1-3-2.4-2.6-3.1c0.4-0.7,2.2-0.4,4,0.6c1.8,1,3,2.4,2.6,3.1
			C133.1,182.3,131.3,182,129.4,181z"/>
		<path fill="#415463" d="M169.2,181.6c-0.4-0.7,0.8-2.1,2.6-3.1c1.8-1,3.6-1.3,4-0.6c0.4,0.7-0.8,2.1-2.6,3.1
			C171.3,182,169.5,182.3,169.2,181.6z"/>
	</g>
</g>
<g>
	
		<line fill="none" stroke="#415463" stroke-linecap="round" stroke-linejoin="round" stroke-miterlimit="10" stroke-dasharray="12,6" x1="200.7" y1="351.7" x2="200.7" y2="20.7"/>
	
		<path fill="none" stroke="#415463" stroke-linecap="round" stroke-linejoin="round" stroke-miterlimit="10" stroke-dasharray="12,6" d="
		M315,228.1l-96.5-16.6c-6-1-12.3-1.6-18.5-1.6c-6.3,0-12.5,0.5-18.5,1.6L85,228.1"/>
	
		<path fill="none" stroke="#415463" stroke-linecap="round" stroke-linejoin="round" stroke-miterlimit="10" stroke-dasharray="12,6" d="
		M315,180.8l-96.5-16.6c-6-1-12.3-1.6-18.5-1.6c-6.3,0-12.5,0.5-18.5,1.6L85,180.8"/>
	
		<path fill="none" stroke="#415463" stroke-linecap="round" stroke-linejoin="round" stroke-miterlimit="10" stroke-dasharray="12,6" d="
		M315,133.5l-96.5-16.6c-6-1-12.3-1.6-18.5-1.6c-6.3,0-12.5,0.5-18.5,1.6L85,133.5"/>
	
		<path fill="none" stroke="#415463" stroke-linecap="round" stroke-linejoin="round" stroke-miterlimit="10" stroke-dasharray="12,6" d="
		M315,86.2l-96.5-16.6c-6-1-12.3-1.6-18.5-1.6c-6.3,0-12.5,0.5-18.5,1.6L85,86.2"/>
	
		<path fill="none" stroke="#415463" stroke-linecap="round" stroke-linejoin="round" stroke-miterlimit="10" stroke-dasharray="12,6" d="
		M315,275.3l-96.5-16.6c-6-1-12.3-1.6-18.5-1.6c-6.3,0-12.5,0.5-18.5,1.6L85,275.3"/>
	
		<path fill="none" stroke="#415463" stroke-linecap="round" stroke-linejoin="round" stroke-miterlimit="10" stroke-dasharray="12,6" d="
		M315,322.6L218.5,306c-6-1-12.3-1.6-18.5-1.6c-6.3,0-12.5,0.5-18.5,1.6L85,322.6"/>
</g>
<path fill="none" stroke="#415463" stroke-width="3" stroke-linejoin="round" stroke-miterlimit="10" d="M97.8,367.7l83.6-14.4
	c6-1,12.3-1.6,18.5-1.6c6.2,0,12.5,0.5,18.5,1.6l83.6,14.4l12.8,7.8V38.9l0,0l-96.5-16.6c-6-1-12.3-1.6-18.5-1.6
	c-6.3,0-12.5,0.5-18.5,1.6L85,38.9l0,0v336.6L97.8,367.7z"/>
</svg>
