<?xml version="1.0" encoding="utf-8"?>
<!-- Generator: Adobe Illustrator 18.0.0, SVG Export Plug-In . SVG Version: 6.00 Build 0)  -->
<!DOCTYPE svg PUBLIC "-//W3C//DTD SVG 1.1//EN" "http://www.w3.org/Graphics/SVG/1.1/DTD/svg11.dtd">
<svg version="1.1" id="Layer_1" xmlns="http://www.w3.org/2000/svg" xmlns:xlink="http://www.w3.org/1999/xlink" x="0px" y="0px"
	 viewBox="0 0 400 400" enable-background="new 0 0 400 400" xml:space="preserve">
<path fill="#D9DDE0" d="M267.2,376.6V38.3l0,0l-56.3-16.1c-3.5-1-7.2-1.5-10.8-1.5c-3.7,0-7.3,0.5-10.8,1.5l-56.3,16.1l0,0v338.3
	c0,0,48,2.7,67.6,2.7S267.2,376.6,267.2,376.6z"/>
<g>
	<g>
		<path fill="#FFFFFF" d="M199.8,346.2c-4.3,0-5.6,0-13.3-0.7c-7.5-0.7-13.1-5-16.5-12.9c-2.6-5.8-2.5-13.4-2.4-19.4c0-1,0-2,0-2.9
			c0-5.4,1.4-9.3,1.9-10.5c-0.1-1.4-0.4-6.6-0.6-12.8c-0.7-0.6-1.4-1.7-1.6-3.8c-0.1-2.1,0.7-3.5,1.3-4.2c0-0.3,0-0.6,0-0.9
			c-0.1-6.1,0-16.4,0.3-30.7c-2.4,0.7-5,0.9-5,0.9c0,0-0.1,0-0.1,0c-0.8,0-1.4-0.6-1.5-1.3c-0.1-1.3,0.5-2.7,1.8-4.2
			c0.6-0.7,2.1-2,3.3-2.8c-1.1-9.9-0.9-16.9-0.7-20.2l0-0.4c0.3-4.3,0.7-10.7,7.2-16.6c8-7.2,21.9-7.8,26-7.8c0,0,0.1,0,0.1,0
			c4.2,0,18,0.6,26,7.8c6.5,5.8,6.9,12.3,7.2,16.5l0,0.4c0.2,3.3,0.4,10.3-0.7,20.2c1.2,0.8,2.7,2.1,3.3,2.8
			c1.3,1.5,1.9,2.9,1.8,4.2c-0.1,0.7-0.6,1.2-1.3,1.3c-0.1,0-0.1,0-0.2,0c-0.3,0-2.7-0.2-5.1-0.9c0.3,14,0.4,24.6,0.3,30.7
			c0,0.3,0,0.6,0,0.9c0.6,0.7,1.4,2.1,1.3,4.2c-0.1,2.1-0.9,3.2-1.6,3.8c-0.2,6.2-0.6,11.4-0.6,12.8c0.5,1.2,1.9,5.1,1.9,10.5
			c0,0.9,0,1.9,0,2.9c0.1,6.1,0.2,13.6-2.4,19.4c-3.5,7.9-9,12.2-16.5,12.9c-7.8,0.7-9.1,0.7-13.4,0.7c0,0-0.1,0-0.1,0
			C200,346.2,199.8,346.2,199.8,346.2z"/>
		<path fill="#415463" d="M200,196.5C200,196.5,200,196.5,200,196.5c5.6,0,18,1,25,7.4c6.2,5.6,6.4,11.8,6.7,16
			c0.3,4.1,0.4,11.2-0.8,20.9c0,0,0,0,0,0c0.3,0,5.5,3.4,5.2,6c0,0,0,0,0,0c-0.2,0-4.2-0.4-6.6-1.6c0,0.1,0.6,22.1,0.4,32.8
			c0,0.5,0,1,0,1.6c0.3,0.3,1.4,1.3,1.3,3.5c-0.2,2.4-1.3,3-1.5,3.1c-0.3,7.6-0.7,13.9-0.7,13.9s1.9,4.1,1.9,10.2
			c0,6.2,0.6,15.2-2.2,21.7c-2.9,6.5-7.6,11.3-15.3,12c-7.7,0.7-8.9,0.7-13.3,0.7c0,0,0,0,0,0c0,0,0,0,0,0c0,0,0,0,0,0
			c-0.1,0-0.1,0-0.2,0c-4.3,0-5.6,0-13.2-0.7c-7.7-0.7-12.4-5.5-15.3-12c-2.9-6.5-2.2-15.6-2.2-21.7c0-6.2,1.9-10.2,1.9-10.2
			s-0.4-6.3-0.7-13.9c-0.1,0-1.4-0.6-1.5-3.1c-0.1-2.2,1-3.3,1.3-3.5c0-0.5,0-1,0-1.5c-0.2-10.7,0.4-32.7,0.4-32.8
			c-2.5,1.3-6.6,1.6-6.6,1.6c-0.3-2.6,4.9-6,5.2-6c0,0,0,0,0,0c-1.1-9.7-1.1-16.7-0.8-20.9c0.3-4.1,0.5-10.4,6.7-15.9
			C182,197.5,194.4,196.5,200,196.5C200,196.5,200,196.5,200,196.5C200,196.5,200,196.5,200,196.5C200,196.5,200,196.5,200,196.5
			 M200,193.5C200,193.5,199.9,193.5,200,193.5c-4.4,0-18.7,0.6-27.1,8.1c-6.9,6.2-7.4,13.3-7.7,17.6l0,0.4
			c-0.3,4-0.4,10.5,0.6,19.6c-1.5,1.1-2.8,2.5-2.8,2.5c-1.6,1.8-2.4,3.6-2.2,5.3c0.2,1.5,1.5,2.7,3,2.7c0.1,0,0.1,0,0.2,0
			c0,0,1.5-0.1,3.4-0.5c-0.3,13.3-0.4,23-0.3,28.8c0,0.1,0,0.2,0,0.4c-0.7,1-1.4,2.6-1.3,4.8c0.1,2.1,0.8,3.5,1.6,4.3
			c0.2,5.6,0.5,10.2,0.6,11.9c-0.6,1.6-1.9,5.5-1.9,10.7c0,0.9,0,1.9,0,2.9c-0.1,6.2-0.2,13.9,2.5,20.1c3.7,8.4,9.7,13.1,17.8,13.8
			c7.8,0.7,9.2,0.7,13.5,0.7h0c0.1,0,0.1,0,0.2,0c0.1,0,0.1,0,0.2,0c4.3,0,5.7,0,13.5-0.7c8.1-0.7,14.1-5.4,17.8-13.8
			c2.7-6.1,2.6-13.9,2.5-20.1c0-1,0-2,0-2.9c0-5.2-1.3-9.1-1.9-10.7c0.1-1.7,0.4-6.4,0.6-12c0.8-1,1.5-2.4,1.6-4.3
			c0.1-2.2-0.6-3.8-1.3-4.8c0-0.1,0-0.3,0-0.4c0.1-5.7,0-15.8-0.3-28.7c1.8,0.4,3.3,0.5,3.6,0.5c0.2,0,0.3,0,0.5,0
			c1.3-0.2,2.4-1.3,2.5-2.6c0.2-1.7-0.5-3.5-2.2-5.3c0,0-1.3-1.4-2.9-2.5c1-9.6,0.8-16.3,0.6-19.6l0-0.4c-0.3-4.2-0.8-11.3-7.7-17.6
			C218.7,194.2,204.4,193.5,200,193.5C200.1,193.5,200,193.5,200,193.5L200,193.5z"/>
	</g>
	<path fill="#415463" d="M198.3,201c0-0.4,0.8-0.7,1.7-0.7c0.9,0,1.7,0.3,1.7,0.7c0,0.4-0.8,0.7-1.7,0.7
		C199.1,201.6,198.3,201.3,198.3,201z"/>
	<path fill="#415463" d="M172.4,210.5c-0.5-0.7,0.6-2.5,2.6-4c2-1.4,4-2,4.6-1.2c0.5,0.8-0.6,2.5-2.6,4
		C175,210.7,172.9,211.3,172.4,210.5z"/>
	<path fill="#415463" d="M223,209.3c-2-1.4-3.2-3.2-2.6-4c0.5-0.7,2.6-0.2,4.6,1.2c2,1.4,3.2,3.2,2.6,3.9
		C227,211.3,225,210.7,223,209.3z"/>
	<path fill="#415463" d="M227.7,299.8l-2,16.4c0,0-1.2-8.5-1.7-14.9c-0.6-6.4-0.1-31.8,0.6-37.7c0.7-5.5,3.2-25.5,3.2-25.5
		C228.3,252.8,227.7,299.8,227.7,299.8z"/>
	<path fill="#415463" d="M173.5,233.2l0.1-0.1c2.5-4.9,7.1-8.4,13.7-10.5c5.7-1.8,11.2-2,12.8-2c1.6,0,7,0.2,12.8,2
		c6.6,2.1,11.2,5.7,13.7,10.5l0.1,0.1l-0.1,0c-0.2,1-2.1,15-3.1,22.4l0,0.1l-0.1,0c0,0-2.3-0.9-6.2-1.7c-3.7-0.8-9.6-1.7-17-1.7
		c-7.4,0-13.3,0.9-17,1.7c-4,0.8-6.2,1.7-6.2,1.7l-0.1,0l0-0.1C175.6,248.2,173.8,234.2,173.5,233.2L173.5,233.2z"/>
	<path fill="#415463" d="M172.3,299.8c0,0-0.6-47,0-61.7c0,0,2.5,20,3.2,25.5c0.7,5.9,1.1,31.3,0.6,37.7c-0.6,6.4-1.7,14.9-1.7,14.9
		L172.3,299.8z"/>
	<path fill="#415463" d="M179.9,327.7L179.9,327.7L179.9,327.7c0,0-0.3-5.6-0.5-11.1c-0.1-2.8-0.2-5.5-0.3-7.6
		c-0.1-1.9-0.1-2.7-0.1-3.2c0-0.1,0-0.2,0-0.3l0,0l0,0c0-0.1,0-0.1,0.1-0.1l0.1,0l0,0.1c5,2.6,20.6,2.7,20.7,2.7
		c0.2,0,15.8,0,20.7-2.7l0,0l0.1,0c0,0,0.1,0,0.1,0.1h0l0,0c0,0.3,0,1.1-0.1,3.4c-0.1,2.1-0.2,4.9-0.3,7.6
		c-0.2,5.5-0.4,11.1-0.4,11.1l0,0c-0.1,0.2-2.3,5.9-18.9,5.9l0,0h-0.2C195.9,333.6,183.8,333.1,179.9,327.7z"/>
	<rect x="195.5" y="334.8" fill="#415463" width="8.9" height="0.9"/>
	<path fill="#415463" d="M178.1,338.6c-1.8-1-3-2.4-2.6-3.1c0.4-0.7,2.2-0.4,4,0.6c1.8,1,3,2.4,2.6,3.1
		C181.8,339.9,180,339.6,178.1,338.6z"/>
	<path fill="#415463" d="M217.8,339.2c-0.4-0.7,0.8-2.1,2.6-3.1c1.8-1,3.6-1.3,4-0.6c0.4,0.7-0.8,2.1-2.6,3.1
		C220,339.6,218.2,339.9,217.8,339.2z"/>
</g>
<g>
	<g>
		<path fill="#FFFFFF" d="M199.8,188.6c-4.3,0-5.6,0-13.3-0.7c-7.5-0.7-13.1-5-16.5-12.9c-2.6-5.8-2.5-13.4-2.4-19.4c0-1,0-2,0-2.9
			c0-5.4,1.4-9.3,1.9-10.5c-0.1-1.4-0.4-6.6-0.6-12.8c-0.7-0.6-1.4-1.7-1.6-3.8c-0.1-2.1,0.7-3.5,1.3-4.2c0-0.3,0-0.6,0-0.9
			c-0.1-6.1,0-16.4,0.3-30.7c-2.4,0.7-5,0.9-5,0.9c0,0-0.1,0-0.1,0c-0.8,0-1.4-0.6-1.5-1.3c-0.1-1.3,0.5-2.7,1.8-4.2
			c0.6-0.7,2.1-2,3.3-2.8c-1.1-9.9-0.9-16.9-0.7-20.2l0-0.4c0.3-4.3,0.7-10.7,7.2-16.6c8-7.2,21.9-7.8,26-7.8c0,0,0.1,0,0.1,0
			c4.2,0,18,0.6,26,7.8c6.5,5.8,6.9,12.3,7.2,16.5l0,0.4c0.2,3.3,0.4,10.3-0.7,20.2c1.2,0.8,2.7,2.1,3.3,2.8
			c1.3,1.5,1.9,2.9,1.8,4.2c-0.1,0.7-0.6,1.2-1.3,1.3c-0.1,0-0.1,0-0.2,0c-0.3,0-2.7-0.2-5.1-0.9c0.3,14,0.4,24.6,0.3,30.7
			c0,0.3,0,0.6,0,0.9c0.6,0.7,1.4,2.1,1.3,4.2c-0.1,2.1-0.9,3.2-1.6,3.8c-0.2,6.2-0.6,11.4-0.6,12.8c0.5,1.2,1.9,5.1,1.9,10.5
			c0,0.9,0,1.9,0,2.9c0.1,6.1,0.2,13.6-2.4,19.4c-3.5,7.9-9,12.2-16.5,12.9c-7.7,0.7-9.1,0.7-13.4,0.7c0,0-0.1,0-0.1,0
			C200,188.6,199.8,188.6,199.8,188.6z"/>
		<path fill="#415463" d="M200,38.9C200,38.9,200,38.9,200,38.9c5.6,0,18,1,25,7.4c6.2,5.6,6.4,11.8,6.7,16
			c0.3,4.1,0.4,11.2-0.8,20.9c0,0,0,0,0,0c0.3,0,5.5,3.4,5.2,6c0,0,0,0,0,0c-0.2,0-4.2-0.4-6.6-1.6c0,0.1,0.6,22.1,0.4,32.8
			c0,0.5,0,1,0,1.6c0.3,0.3,1.4,1.3,1.3,3.5c-0.2,2.4-1.3,3-1.5,3.1c-0.3,7.6-0.7,13.9-0.7,13.9s1.9,4.1,1.9,10.2
			c0,6.2,0.6,15.2-2.2,21.7c-2.9,6.5-7.6,11.3-15.3,12c-7.7,0.7-8.9,0.7-13.3,0.7c0,0,0,0,0,0c0,0,0,0,0,0c0,0,0,0,0,0
			c-0.1,0-0.1,0-0.2,0c-4.3,0-5.6,0-13.2-0.7c-7.7-0.7-12.4-5.5-15.3-12c-2.9-6.5-2.2-15.6-2.2-21.7c0-6.2,1.9-10.2,1.9-10.2
			s-0.4-6.3-0.7-13.9c-0.1,0-1.4-0.6-1.5-3.1c-0.1-2.2,1-3.3,1.3-3.5c0-0.5,0-1,0-1.5c-0.2-10.7,0.4-32.7,0.4-32.8
			c-2.5,1.3-6.6,1.6-6.6,1.6c-0.3-2.6,4.9-6,5.2-6c0,0,0,0,0,0c-1.1-9.7-1.1-16.7-0.8-20.9c0.3-4.1,0.5-10.4,6.7-15.9
			C182,39.9,194.4,38.9,200,38.9C200,38.9,200,38.9,200,38.9C200,38.9,200,38.9,200,38.9C200,38.9,200,38.9,200,38.9 M200,35.9
			C200,35.9,199.9,35.9,200,35.9c-4.4,0-18.7,0.6-27.1,8.1c-6.9,6.2-7.4,13.3-7.7,17.6l0,0.4c-0.3,4-0.4,10.5,0.6,19.6
			c-1.5,1.1-2.8,2.5-2.8,2.5c-1.6,1.8-2.4,3.6-2.2,5.3c0.2,1.5,1.5,2.7,3,2.7c0.1,0,0.1,0,0.2,0c0,0,1.5-0.1,3.4-0.5
			c-0.3,13.3-0.4,23-0.3,28.8c0,0.1,0,0.2,0,0.4c-0.7,1-1.4,2.6-1.3,4.8c0.1,2.1,0.8,3.5,1.6,4.3c0.2,5.6,0.5,10.2,0.6,11.9
			c-0.6,1.6-1.9,5.5-1.9,10.7c0,0.9,0,1.9,0,2.9c-0.1,6.2-0.2,13.9,2.5,20.1c3.7,8.4,9.7,13.1,17.8,13.8c7.8,0.7,9.2,0.7,13.5,0.7h0
			c0.1,0,0.1,0,0.2,0c0.1,0,0.1,0,0.2,0c4.3,0,5.7,0,13.5-0.7c8.1-0.7,14.1-5.4,17.8-13.8c2.7-6.1,2.6-13.9,2.5-20.1c0-1,0-2,0-2.9
			c0-5.2-1.3-9.1-1.9-10.7c0.1-1.7,0.4-6.4,0.6-12c0.8-1,1.5-2.4,1.6-4.3c0.1-2.2-0.6-3.8-1.3-4.8c0-0.1,0-0.3,0-0.4
			c0.1-5.7,0-15.8-0.3-28.7c1.8,0.4,3.3,0.5,3.6,0.5c0.2,0,0.3,0,0.5,0c1.3-0.2,2.4-1.3,2.5-2.6c0.2-1.7-0.5-3.5-2.2-5.3
			c0,0-1.3-1.4-2.9-2.6c1-9.6,0.8-16.3,0.6-19.6l0-0.4c-0.3-4.2-0.8-11.3-7.7-17.6C218.7,36.6,204.4,35.9,200,35.9
			C200.1,35.9,200,35.9,200,35.9L200,35.9z"/>
	</g>
	<path fill="#415463" d="M198.3,43.4c0-0.4,0.8-0.7,1.7-0.7c0.9,0,1.7,0.3,1.7,0.7c0,0.4-0.8,0.7-1.7,0.7
		C199.1,44,198.3,43.7,198.3,43.4z"/>
	<path fill="#415463" d="M172.4,52.9c-0.5-0.7,0.6-2.5,2.6-4c2-1.4,4-2,4.6-1.2c0.5,0.8-0.6,2.5-2.6,4
		C175,53.1,172.9,53.7,172.4,52.9z"/>
	<path fill="#415463" d="M223,51.7c-2-1.4-3.2-3.2-2.6-4c0.5-0.7,2.6-0.2,4.6,1.2c2,1.4,3.2,3.2,2.6,3.9C227,53.7,225,53.1,223,51.7
		z"/>
	<path fill="#415463" d="M227.7,142.2l-2,16.4c0,0-1.2-8.5-1.7-14.9c-0.6-6.4-0.1-31.8,0.6-37.7c0.7-5.5,3.2-25.5,3.2-25.5
		C228.3,95.2,227.7,142.2,227.7,142.2z"/>
	<path fill="#415463" d="M173.5,75.6l0.1-0.1c2.5-4.9,7.1-8.4,13.7-10.5c5.7-1.8,11.2-2,12.8-2c1.6,0,7,0.2,12.8,2
		c6.6,2.1,11.2,5.7,13.7,10.5l0.1,0.1l-0.1,0c-0.2,1-2.1,15-3.1,22.4l0,0.1l-0.1,0c0,0-2.3-0.9-6.2-1.7c-3.7-0.8-9.6-1.7-17-1.7
		c-7.4,0-13.3,0.9-17,1.7c-4,0.8-6.2,1.7-6.2,1.7l-0.1,0l0-0.1C175.6,90.6,173.8,76.6,173.5,75.6L173.5,75.6z"/>
	<path fill="#415463" d="M172.3,142.2c0,0-0.6-47,0-61.7c0,0,2.5,20,3.2,25.5c0.7,5.9,1.1,31.3,0.6,37.7c-0.6,6.4-1.7,14.9-1.7,14.9
		L172.3,142.2z"/>
	<path fill="#415463" d="M179.9,170.1L179.9,170.1L179.9,170.1c0,0-0.3-5.6-0.5-11.1c-0.1-2.8-0.2-5.5-0.3-7.6
		c-0.1-1.9-0.1-2.7-0.1-3.2c0-0.1,0-0.2,0-0.3l0,0l0,0c0-0.1,0-0.1,0.1-0.1l0.1,0l0,0.1c5,2.6,20.6,2.7,20.7,2.7
		c0.2,0,15.8,0,20.7-2.7l0,0l0.1,0c0,0,0.1,0,0.1,0.1h0l0,0c0,0.3,0,1.1-0.1,3.4c-0.1,2.1-0.2,4.9-0.3,7.6
		c-0.2,5.5-0.4,11.1-0.4,11.1l0,0c-0.1,0.2-2.3,5.9-18.9,5.9l0,0h-0.2C195.9,176,183.8,175.5,179.9,170.1z"/>
	<rect x="195.5" y="177.2" fill="#415463" width="8.9" height="0.9"/>
	<path fill="#415463" d="M178.1,181c-1.8-1-3-2.4-2.6-3.1c0.4-0.7,2.2-0.4,4,0.6c1.8,1,3,2.4,2.6,3.1C181.8,182.3,180,182,178.1,181
		z"/>
	<path fill="#415463" d="M217.8,181.6c-0.4-0.7,0.8-2.1,2.6-3.1c1.8-1,3.6-1.3,4-0.6c0.4,0.7-0.8,2.1-2.6,3.1
		C220,182,218.2,182.3,217.8,181.6z"/>
</g>
<g>
	
		<line fill="none" stroke="#415463" stroke-linecap="round" stroke-linejoin="round" stroke-miterlimit="10" stroke-dasharray="12,6" x1="200.4" y1="351.7" x2="200.4" y2="20.7"/>
	
		<path fill="none" stroke="#415463" stroke-linecap="round" stroke-linejoin="round" stroke-miterlimit="10" stroke-dasharray="12,6" d="
		M267.2,228.1l-56.3-16.6c-3.5-1-7.2-1.6-10.8-1.6c-3.7,0-7.3,0.5-10.8,1.6l-56.3,16.6"/>
	
		<path fill="none" stroke="#415463" stroke-linecap="round" stroke-linejoin="round" stroke-miterlimit="10" stroke-dasharray="12,6" d="
		M267.2,180.8l-56.3-16.6c-3.5-1-7.2-1.6-10.8-1.6c-3.7,0-7.3,0.5-10.8,1.6l-56.3,16.6"/>
	
		<path fill="none" stroke="#415463" stroke-linecap="round" stroke-linejoin="round" stroke-miterlimit="10" stroke-dasharray="12,6" d="
		M267.2,133.5l-56.3-16.6c-3.5-1-7.2-1.6-10.8-1.6c-3.7,0-7.3,0.5-10.8,1.6l-56.3,16.6"/>
	
		<path fill="none" stroke="#415463" stroke-linecap="round" stroke-linejoin="round" stroke-miterlimit="10" stroke-dasharray="12,6" d="
		M267.2,86.2l-56.3-16.6c-3.5-1-7.2-1.6-10.8-1.6c-3.7,0-7.3,0.5-10.8,1.6l-56.3,16.6"/>
	
		<path fill="none" stroke="#415463" stroke-linecap="round" stroke-linejoin="round" stroke-miterlimit="10" stroke-dasharray="12,6" d="
		M267.2,275.3l-56.3-16.6c-3.5-1-7.2-1.6-10.8-1.6c-3.7,0-7.3,0.5-10.8,1.6l-56.3,16.6"/>
	
		<path fill="none" stroke="#415463" stroke-linecap="round" stroke-linejoin="round" stroke-miterlimit="10" stroke-dasharray="12,6" d="
		M267.2,322.6L210.8,306c-3.5-1-7.2-1.6-10.8-1.6c-3.7,0-7.3,0.5-10.8,1.6l-56.3,16.6"/>
</g>
<path fill="none" stroke="#415463" stroke-width="3" stroke-linejoin="round" stroke-miterlimit="10" d="M140.3,367.7l48.9-14.4
	c3.5-1,7.2-1.6,10.8-1.6c3.7,0,7.3,0.5,10.8,1.6l48.9,14.4l7.5,7.8V38.9l0,0l-56.3-16.6c-3.5-1-7.2-1.6-10.8-1.6
	c-3.7,0-7.3,0.5-10.8,1.6l-56.3,16.6v0v336.6L140.3,367.7z"/>
</svg>
